<?xml version="1.0" encoding="utf-8"?>
<!-- Generator: Adobe Illustrator 24.0.0, SVG Export Plug-In . SVG Version: 6.00 Build 0)  -->
<svg version="1.1" id="Layer_2_1_" xmlns="http://www.w3.org/2000/svg" xmlns:xlink="http://www.w3.org/1999/xlink" x="0px" y="0px"
	 viewBox="0 0 492.9 265.3" style="enable-background:new 0 0 492.9 265.3;" xml:space="preserve">
<style type="text/css">
	.st0{fill:#EC5466;}
	.st1{fill:#FFFFFF;}
</style>
<circle class="st0" cx="145.8" cy="185.5" r="15.5"/>
<path class="st1" d="M281.1,66.3c-37.2,0-67.3,30.2-67.3,67.3s30.1,67.3,67.3,67.3s67.3-30.1,67.3-67.3S318.3,66.3,281.1,66.3z
	 M281.1,170c-20.1,0-36.4-16.3-36.4-36.4s16.3-36.4,36.4-36.4s36.4,16.3,36.4,36.4S301.2,170,281.1,170z"/>
<path class="st1" d="M137.4,133.6L137.4,133.6V17.2c0-8.6-7-15.5-15.5-15.5s-15.5,7-15.5,15.5l0,0v59.6
	c-10.5-6.7-22.9-10.6-36.2-10.6C33,66.2,2.9,96.4,2.9,133.5s30.2,67.3,67.3,67.3C107.3,200.9,137.4,170.8,137.4,133.6L137.4,133.6z
	 M70.1,170c-20.1,0-36.4-16.3-36.4-36.4S50,97.2,70.1,97.2c18.8,0,34.3,14.3,36.2,32.6v3.8h0.2l0,0C106.5,153.7,90.2,170,70.1,170z"
	/>
<path class="st1" d="M424.1,66.3c-13.3,0-25.8,3.9-36.2,10.6V17.2l0,0c0-8.6-7-15.5-15.5-15.5c-8.6,0-15.5,7-15.5,15.5v116.4l0,0
	l0,0c0,37.2,30.1,67.3,67.3,67.3s67.3-30.1,67.3-67.3S461.3,66.3,424.1,66.3z M424.1,170c-20.1,0-36.4-16.3-36.4-36.4l0,0h0.2v-3.8
	c1.9-18.3,17.4-32.6,36.2-32.6c20.1,0,36.4,16.3,36.4,36.4S444.3,170,424.1,170z"/>
<path class="st1" d="M203,81c0-8.6-6.9-15.5-15.5-15.5S172,72.4,172,81l0,0l0,0v116.1l0,0c0,0.1,0,0.2,0,0.2
	c0,20.1-16.3,36.4-36.4,36.4c-8.5,0-15.5,6.9-15.5,15.5c0,8.5,6.9,15.5,15.5,15.5c37.1,0,67.2-30,67.3-67.1l0,0v-0.2l0,0l0,0V81.5
	C203,81.3,203,81.2,203,81z"/>
<ellipse class="st1" cx="187.5" cy="37.3" rx="15.5" ry="15.5"/>
</svg>
